<mxfile host="app.diagrams.net" agent="Mozilla/5.0 (Windows NT 10.0; Win64; x64) AppleWebKit/537.36 (KHTML, like Gecko) Chrome/134.0.0.0 Safari/537.36" version="26.2.8">
  <diagram name="페이지-1" id="b8eCybg1pRbkd13Y90F7">
    <mxGraphModel dx="1606" dy="2053" grid="1" gridSize="10" guides="1" tooltips="1" connect="1" arrows="1" fold="1" page="1" pageScale="1" pageWidth="827" pageHeight="1169" math="0" shadow="0">
      <root>
        <mxCell id="0" />
        <mxCell id="1" parent="0" />
        <mxCell id="FyADekcgpO9czLupaLKr-2" value="" style="rounded=1;whiteSpace=wrap;html=1;" vertex="1" parent="1">
          <mxGeometry x="1210" y="50" width="480" height="200" as="geometry" />
        </mxCell>
        <mxCell id="FyADekcgpO9czLupaLKr-3" style="edgeStyle=orthogonalEdgeStyle;rounded=0;orthogonalLoop=1;jettySize=auto;html=1;exitX=0.5;exitY=1;exitDx=0;exitDy=0;entryX=0.5;entryY=0;entryDx=0;entryDy=0;" edge="1" parent="1" source="FyADekcgpO9czLupaLKr-4" target="FyADekcgpO9czLupaLKr-6">
          <mxGeometry relative="1" as="geometry" />
        </mxCell>
        <mxCell id="FyADekcgpO9czLupaLKr-4" value="서비스 시작" style="ellipse;whiteSpace=wrap;html=1;fillColor=#ffe6cc;strokeColor=#d79b00;" vertex="1" parent="1">
          <mxGeometry x="1390" y="160" width="120" height="40" as="geometry" />
        </mxCell>
        <mxCell id="FyADekcgpO9czLupaLKr-52" style="edgeStyle=orthogonalEdgeStyle;rounded=0;orthogonalLoop=1;jettySize=auto;html=1;exitX=0.5;exitY=1;exitDx=0;exitDy=0;entryX=0.5;entryY=0;entryDx=0;entryDy=0;" edge="1" parent="1" source="FyADekcgpO9czLupaLKr-6" target="FyADekcgpO9czLupaLKr-11">
          <mxGeometry relative="1" as="geometry" />
        </mxCell>
        <mxCell id="FyADekcgpO9czLupaLKr-6" value="config 확인" style="rounded=1;whiteSpace=wrap;html=1;fontSize=12;glass=0;strokeWidth=1;shadow=0;fillColor=#dae8fc;strokeColor=#6c8ebf;" vertex="1" parent="1">
          <mxGeometry x="1390" y="230" width="120" height="40" as="geometry" />
        </mxCell>
        <mxCell id="FyADekcgpO9czLupaLKr-54" value="No" style="edgeStyle=orthogonalEdgeStyle;rounded=0;orthogonalLoop=1;jettySize=auto;html=1;exitX=0.5;exitY=1;exitDx=0;exitDy=0;entryX=0.5;entryY=0;entryDx=0;entryDy=0;" edge="1" parent="1" source="FyADekcgpO9czLupaLKr-11" target="FyADekcgpO9czLupaLKr-13">
          <mxGeometry relative="1" as="geometry" />
        </mxCell>
        <mxCell id="FyADekcgpO9czLupaLKr-117" value="Yes" style="edgeStyle=orthogonalEdgeStyle;rounded=0;orthogonalLoop=1;jettySize=auto;html=1;exitX=0;exitY=0.5;exitDx=0;exitDy=0;entryX=0;entryY=0.5;entryDx=0;entryDy=0;" edge="1" parent="1" source="FyADekcgpO9czLupaLKr-11" target="FyADekcgpO9czLupaLKr-92">
          <mxGeometry relative="1" as="geometry">
            <Array as="points">
              <mxPoint x="1300" y="320" />
              <mxPoint x="1300" y="950" />
            </Array>
          </mxGeometry>
        </mxCell>
        <mxCell id="FyADekcgpO9czLupaLKr-11" value="채널 번호 좌표가&lt;div&gt;등록되어 있는가?&lt;/div&gt;" style="rhombus;whiteSpace=wrap;html=1;rounded=1;fillColor=#d5e8d4;strokeColor=#82b366;" vertex="1" parent="1">
          <mxGeometry x="1370" y="300" width="160" height="40" as="geometry" />
        </mxCell>
        <mxCell id="FyADekcgpO9czLupaLKr-56" style="edgeStyle=orthogonalEdgeStyle;rounded=0;orthogonalLoop=1;jettySize=auto;html=1;exitX=0.5;exitY=1;exitDx=0;exitDy=0;entryX=0.5;entryY=0;entryDx=0;entryDy=0;" edge="1" parent="1" source="FyADekcgpO9czLupaLKr-13" target="FyADekcgpO9czLupaLKr-55">
          <mxGeometry relative="1" as="geometry" />
        </mxCell>
        <mxCell id="FyADekcgpO9czLupaLKr-13" value="채널 변경 및&lt;div&gt;변경된 화면 캡쳐&lt;/div&gt;" style="rounded=1;whiteSpace=wrap;html=1;fontSize=12;glass=0;strokeWidth=1;shadow=0;fillColor=#dae8fc;strokeColor=#6c8ebf;" vertex="1" parent="1">
          <mxGeometry x="1390" y="370" width="120" height="40" as="geometry" />
        </mxCell>
        <mxCell id="FyADekcgpO9czLupaLKr-18" value="&lt;font style=&quot;color: rgb(0, 0, 0);&quot;&gt;STB 이미지 데이터&lt;/font&gt;" style="text;html=1;align=center;verticalAlign=middle;resizable=0;points=[];autosize=1;strokeColor=none;fillColor=none;textShadow=1;fontColor=#3333FF;" vertex="1" parent="1">
          <mxGeometry x="1134" y="-153.5" width="130" height="30" as="geometry" />
        </mxCell>
        <mxCell id="FyADekcgpO9czLupaLKr-60" style="edgeStyle=orthogonalEdgeStyle;rounded=0;orthogonalLoop=1;jettySize=auto;html=1;exitX=0.5;exitY=1;exitDx=0;exitDy=0;entryX=0.5;entryY=0;entryDx=0;entryDy=0;" edge="1" parent="1" source="FyADekcgpO9czLupaLKr-35" target="FyADekcgpO9czLupaLKr-59">
          <mxGeometry relative="1" as="geometry" />
        </mxCell>
        <mxCell id="FyADekcgpO9czLupaLKr-35" value="&lt;span style=&quot;background-color: transparent; color: light-dark(rgb(0, 0, 0), rgb(255, 255, 255));&quot;&gt;배너 영역 탐색&lt;/span&gt;" style="rounded=1;whiteSpace=wrap;html=1;fontSize=12;glass=0;strokeWidth=1;shadow=0;fillColor=#dae8fc;strokeColor=#6c8ebf;" vertex="1" parent="1">
          <mxGeometry x="1390" y="580" width="120" height="40" as="geometry" />
        </mxCell>
        <mxCell id="FyADekcgpO9czLupaLKr-40" value="SCD(scd-service)&lt;br&gt;&lt;div&gt;&lt;div&gt;&lt;font style=&quot;font-size: 12px;&quot;&gt;OCR engine : tesseract&lt;/font&gt;&lt;/div&gt;&lt;/div&gt;" style="text;html=1;align=center;verticalAlign=middle;resizable=0;points=[];autosize=1;strokeColor=none;fillColor=none;fontSize=18;fontStyle=1" vertex="1" parent="1">
          <mxGeometry x="1370" y="73" width="160" height="60" as="geometry" />
        </mxCell>
        <mxCell id="FyADekcgpO9czLupaLKr-41" value="" style="endArrow=classic;startArrow=classic;html=1;rounded=0;fontStyle=1;fontSize=15;strokeWidth=4;entryX=0;entryY=0.5;entryDx=0;entryDy=0;" edge="1" parent="1">
          <mxGeometry width="50" height="50" relative="1" as="geometry">
            <mxPoint x="1089" y="-125.12" as="sourcePoint" />
            <mxPoint x="1309" y="-125.5" as="targetPoint" />
            <Array as="points">
              <mxPoint x="1179" y="-126.12" />
            </Array>
          </mxGeometry>
        </mxCell>
        <mxCell id="FyADekcgpO9czLupaLKr-42" value="" style="rounded=1;whiteSpace=wrap;html=1;fillColor=#fff2cc;strokeColor=#d6b656;" vertex="1" parent="1">
          <mxGeometry x="900" width="140" height="76" as="geometry" />
        </mxCell>
        <mxCell id="FyADekcgpO9czLupaLKr-43" value="&lt;br&gt;&lt;font style=&quot;forced-color-adjust: none; color: rgb(0, 0, 0); font-family: Helvetica; font-size: 13px; font-style: normal; font-variant-ligatures: normal; font-variant-caps: normal; letter-spacing: normal; orphans: 2; text-indent: 0px; text-transform: none; widows: 2; word-spacing: 0px; -webkit-text-stroke-width: 0px; white-space: normal; background-color: rgb(251, 251, 251); text-decoration-thickness: initial; text-decoration-style: initial; text-decoration-color: initial;&quot;&gt;국가 및 STB 사업자 별&lt;/font&gt;&lt;div style=&quot;forced-color-adjust: none; color: rgb(0, 0, 0); font-family: Helvetica; font-size: 13px; font-style: normal; font-variant-ligatures: normal; font-variant-caps: normal; letter-spacing: normal; orphans: 2; text-indent: 0px; text-transform: none; widows: 2; word-spacing: 0px; -webkit-text-stroke-width: 0px; white-space: normal; background-color: rgb(251, 251, 251); text-decoration-thickness: initial; text-decoration-style: initial; text-decoration-color: initial;&quot;&gt;&lt;font style=&quot;forced-color-adjust: none;&quot;&gt;이미지 데이터&lt;/font&gt;&lt;/div&gt;" style="ellipse;shape=cloud;whiteSpace=wrap;html=1;fontStyle=0;align=center;labelPosition=center;verticalLabelPosition=middle;verticalAlign=middle;" vertex="1" parent="1">
          <mxGeometry x="840" y="-200" width="270" height="149" as="geometry" />
        </mxCell>
        <mxCell id="FyADekcgpO9czLupaLKr-44" value="Server" style="text;html=1;align=center;verticalAlign=middle;resizable=0;points=[];autosize=1;strokeColor=none;fillColor=none;fontSize=18;fontStyle=1" vertex="1" parent="1">
          <mxGeometry x="935" y="-171" width="80" height="40" as="geometry" />
        </mxCell>
        <mxCell id="FyADekcgpO9czLupaLKr-47" value="easyOCR 이용하여 cross 검증 진행" style="rounded=1;whiteSpace=wrap;html=1;fontSize=12;glass=0;strokeWidth=1;shadow=0;fillColor=#dae8fc;strokeColor=#6c8ebf;" vertex="1" parent="1">
          <mxGeometry x="910" y="18" width="120" height="40" as="geometry" />
        </mxCell>
        <mxCell id="FyADekcgpO9czLupaLKr-50" value="&lt;span style=&quot;font-weight: 700; text-wrap-mode: nowrap;&quot;&gt;&lt;font&gt;easyOCR을 이용한 cross 검증 process&lt;/font&gt;&lt;/span&gt;" style="text;html=1;align=center;verticalAlign=middle;whiteSpace=wrap;rounded=0;" vertex="1" parent="1">
          <mxGeometry x="915" y="103" width="260" height="30" as="geometry" />
        </mxCell>
        <mxCell id="FyADekcgpO9czLupaLKr-51" value="" style="rounded=1;whiteSpace=wrap;html=1;fillColor=#fff2cc;strokeColor=#d6b656;" vertex="1" parent="1">
          <mxGeometry x="850" y="103" width="70" height="30" as="geometry" />
        </mxCell>
        <mxCell id="FyADekcgpO9czLupaLKr-128" value="No" style="edgeStyle=orthogonalEdgeStyle;rounded=0;orthogonalLoop=1;jettySize=auto;html=1;exitX=0;exitY=0.5;exitDx=0;exitDy=0;entryX=0;entryY=0.5;entryDx=0;entryDy=0;" edge="1" parent="1" source="FyADekcgpO9czLupaLKr-55" target="FyADekcgpO9czLupaLKr-13">
          <mxGeometry x="-0.0667" relative="1" as="geometry">
            <Array as="points">
              <mxPoint x="1340" y="460" />
              <mxPoint x="1340" y="390" />
            </Array>
            <mxPoint as="offset" />
          </mxGeometry>
        </mxCell>
        <mxCell id="FyADekcgpO9czLupaLKr-130" value="Yes" style="edgeStyle=orthogonalEdgeStyle;rounded=0;orthogonalLoop=1;jettySize=auto;html=1;exitX=0.5;exitY=1;exitDx=0;exitDy=0;" edge="1" parent="1" source="FyADekcgpO9czLupaLKr-55" target="FyADekcgpO9czLupaLKr-129">
          <mxGeometry relative="1" as="geometry" />
        </mxCell>
        <mxCell id="FyADekcgpO9czLupaLKr-55" value="&lt;div&gt;&lt;span style=&quot;background-color: transparent; color: light-dark(rgb(0, 0, 0), rgb(255, 255, 255));&quot;&gt;화면 캡쳐 수 = 5&lt;/span&gt;&lt;/div&gt;" style="rhombus;whiteSpace=wrap;html=1;rounded=1;fillColor=#d5e8d4;strokeColor=#82b366;" vertex="1" parent="1">
          <mxGeometry x="1370" y="440" width="160" height="40" as="geometry" />
        </mxCell>
        <mxCell id="FyADekcgpO9czLupaLKr-63" value="Yes" style="edgeStyle=orthogonalEdgeStyle;rounded=0;orthogonalLoop=1;jettySize=auto;html=1;exitX=0.5;exitY=1;exitDx=0;exitDy=0;" edge="1" parent="1" source="FyADekcgpO9czLupaLKr-59" target="FyADekcgpO9czLupaLKr-61">
          <mxGeometry relative="1" as="geometry" />
        </mxCell>
        <mxCell id="FyADekcgpO9czLupaLKr-109" value="No" style="edgeStyle=orthogonalEdgeStyle;rounded=0;orthogonalLoop=1;jettySize=auto;html=1;exitX=1;exitY=0.5;exitDx=0;exitDy=0;" edge="1" parent="1" source="FyADekcgpO9czLupaLKr-59" target="FyADekcgpO9czLupaLKr-62">
          <mxGeometry relative="1" as="geometry" />
        </mxCell>
        <mxCell id="FyADekcgpO9czLupaLKr-59" value="배너 영역을 탐지하였는가?" style="rhombus;whiteSpace=wrap;html=1;rounded=1;fillColor=#d5e8d4;strokeColor=#82b366;" vertex="1" parent="1">
          <mxGeometry x="1370" y="650" width="160" height="40" as="geometry" />
        </mxCell>
        <mxCell id="FyADekcgpO9czLupaLKr-67" style="edgeStyle=orthogonalEdgeStyle;rounded=0;orthogonalLoop=1;jettySize=auto;html=1;exitX=0.5;exitY=1;exitDx=0;exitDy=0;entryX=0.5;entryY=0;entryDx=0;entryDy=0;" edge="1" parent="1" source="FyADekcgpO9czLupaLKr-61" target="FyADekcgpO9czLupaLKr-66">
          <mxGeometry relative="1" as="geometry" />
        </mxCell>
        <mxCell id="FyADekcgpO9czLupaLKr-61" value="탐지/설정된 배너 내&lt;div&gt;채널 번호 영역 탐색&lt;/div&gt;" style="rounded=1;whiteSpace=wrap;html=1;fontSize=12;glass=0;strokeWidth=1;shadow=0;fillColor=#dae8fc;strokeColor=#6c8ebf;" vertex="1" parent="1">
          <mxGeometry x="1390" y="720" width="120" height="40" as="geometry" />
        </mxCell>
        <mxCell id="FyADekcgpO9czLupaLKr-110" style="edgeStyle=orthogonalEdgeStyle;rounded=0;orthogonalLoop=1;jettySize=auto;html=1;exitX=0.5;exitY=1;exitDx=0;exitDy=0;entryX=1;entryY=0.5;entryDx=0;entryDy=0;" edge="1" parent="1" source="FyADekcgpO9czLupaLKr-62" target="FyADekcgpO9czLupaLKr-61">
          <mxGeometry relative="1" as="geometry" />
        </mxCell>
        <mxCell id="FyADekcgpO9czLupaLKr-62" value="배너 영역을&lt;div&gt;화면 전체로 설정&lt;/div&gt;" style="rounded=1;whiteSpace=wrap;html=1;fontSize=12;glass=0;strokeWidth=1;shadow=0;fillColor=#dae8fc;strokeColor=#6c8ebf;" vertex="1" parent="1">
          <mxGeometry x="1570" y="650" width="120" height="40" as="geometry" />
        </mxCell>
        <mxCell id="FyADekcgpO9czLupaLKr-69" value="Yes" style="edgeStyle=orthogonalEdgeStyle;rounded=0;orthogonalLoop=1;jettySize=auto;html=1;exitX=0.5;exitY=1;exitDx=0;exitDy=0;" edge="1" parent="1" source="FyADekcgpO9czLupaLKr-66" target="FyADekcgpO9czLupaLKr-68">
          <mxGeometry relative="1" as="geometry" />
        </mxCell>
        <mxCell id="FyADekcgpO9czLupaLKr-112" value="No" style="edgeStyle=orthogonalEdgeStyle;rounded=0;orthogonalLoop=1;jettySize=auto;html=1;exitX=1;exitY=0.5;exitDx=0;exitDy=0;entryX=0;entryY=0.5;entryDx=0;entryDy=0;" edge="1" parent="1" source="FyADekcgpO9czLupaLKr-66" target="FyADekcgpO9czLupaLKr-71">
          <mxGeometry relative="1" as="geometry" />
        </mxCell>
        <mxCell id="FyADekcgpO9czLupaLKr-66" value="채널 번호 영역을&lt;div&gt;탐지하였는가?&lt;/div&gt;" style="rhombus;whiteSpace=wrap;html=1;rounded=1;fillColor=#d5e8d4;strokeColor=#82b366;" vertex="1" parent="1">
          <mxGeometry x="1370" y="790" width="160" height="40" as="geometry" />
        </mxCell>
        <mxCell id="FyADekcgpO9czLupaLKr-93" style="edgeStyle=orthogonalEdgeStyle;rounded=0;orthogonalLoop=1;jettySize=auto;html=1;exitX=0.5;exitY=1;exitDx=0;exitDy=0;" edge="1" parent="1" source="FyADekcgpO9czLupaLKr-68" target="FyADekcgpO9czLupaLKr-92">
          <mxGeometry relative="1" as="geometry" />
        </mxCell>
        <mxCell id="FyADekcgpO9czLupaLKr-68" value="config 내&lt;div&gt;채널 번호 좌표 추가&lt;/div&gt;" style="rounded=1;whiteSpace=wrap;html=1;fontSize=12;glass=0;strokeWidth=1;shadow=0;fillColor=#dae8fc;strokeColor=#6c8ebf;" vertex="1" parent="1">
          <mxGeometry x="1390" y="860" width="120" height="40" as="geometry" />
        </mxCell>
        <mxCell id="FyADekcgpO9czLupaLKr-120" value="Yes" style="edgeStyle=orthogonalEdgeStyle;rounded=0;orthogonalLoop=1;jettySize=auto;html=1;exitX=1;exitY=0.5;exitDx=0;exitDy=0;" edge="1" parent="1" source="FyADekcgpO9czLupaLKr-71" target="FyADekcgpO9czLupaLKr-79">
          <mxGeometry relative="1" as="geometry" />
        </mxCell>
        <mxCell id="FyADekcgpO9czLupaLKr-135" value="No" style="edgeStyle=orthogonalEdgeStyle;rounded=0;orthogonalLoop=1;jettySize=auto;html=1;exitX=0.5;exitY=0;exitDx=0;exitDy=0;entryX=1;entryY=0.5;entryDx=0;entryDy=0;" edge="1" parent="1" source="FyADekcgpO9czLupaLKr-71" target="FyADekcgpO9czLupaLKr-132">
          <mxGeometry x="-0.3548" relative="1" as="geometry">
            <mxPoint as="offset" />
          </mxGeometry>
        </mxCell>
        <mxCell id="FyADekcgpO9czLupaLKr-71" value="마지막 딜레이인가?" style="rhombus;whiteSpace=wrap;html=1;rounded=1;fillColor=#d5e8d4;strokeColor=#82b366;" vertex="1" parent="1">
          <mxGeometry x="1730" y="790" width="160" height="40" as="geometry" />
        </mxCell>
        <mxCell id="FyADekcgpO9czLupaLKr-122" style="edgeStyle=orthogonalEdgeStyle;rounded=0;orthogonalLoop=1;jettySize=auto;html=1;exitX=1;exitY=0.5;exitDx=0;exitDy=0;entryX=0;entryY=0.5;entryDx=0;entryDy=0;" edge="1" parent="1" source="FyADekcgpO9czLupaLKr-79" target="FyADekcgpO9czLupaLKr-121">
          <mxGeometry relative="1" as="geometry" />
        </mxCell>
        <mxCell id="FyADekcgpO9czLupaLKr-79" value="채널 번호 영역 탐색&lt;div&gt;실패 cnt+=1&lt;/div&gt;" style="rounded=1;whiteSpace=wrap;html=1;fontSize=12;glass=0;strokeWidth=1;shadow=0;fillColor=#dae8fc;strokeColor=#6c8ebf;" vertex="1" parent="1">
          <mxGeometry x="1930" y="790" width="120" height="40" as="geometry" />
        </mxCell>
        <mxCell id="FyADekcgpO9czLupaLKr-95" style="edgeStyle=orthogonalEdgeStyle;rounded=0;orthogonalLoop=1;jettySize=auto;html=1;exitX=0.5;exitY=1;exitDx=0;exitDy=0;entryX=0.5;entryY=0;entryDx=0;entryDy=0;" edge="1" parent="1" source="FyADekcgpO9czLupaLKr-92" target="FyADekcgpO9czLupaLKr-94">
          <mxGeometry relative="1" as="geometry" />
        </mxCell>
        <mxCell id="FyADekcgpO9czLupaLKr-92" value="채널 변경 및&lt;div&gt;채널 번호 검출&lt;/div&gt;" style="rounded=1;whiteSpace=wrap;html=1;fontSize=12;glass=0;strokeWidth=1;shadow=0;fillColor=#dae8fc;strokeColor=#6c8ebf;" vertex="1" parent="1">
          <mxGeometry x="1390" y="930" width="120" height="40" as="geometry" />
        </mxCell>
        <mxCell id="FyADekcgpO9czLupaLKr-102" value="Yes" style="edgeStyle=orthogonalEdgeStyle;rounded=0;orthogonalLoop=1;jettySize=auto;html=1;exitX=0.5;exitY=1;exitDx=0;exitDy=0;entryX=0;entryY=0.5;entryDx=0;entryDy=0;" edge="1" parent="1" source="FyADekcgpO9czLupaLKr-94" target="FyADekcgpO9czLupaLKr-101">
          <mxGeometry x="-0.6999" relative="1" as="geometry">
            <mxPoint y="-1" as="offset" />
          </mxGeometry>
        </mxCell>
        <mxCell id="FyADekcgpO9czLupaLKr-103" value="No" style="edgeStyle=orthogonalEdgeStyle;rounded=0;orthogonalLoop=1;jettySize=auto;html=1;exitX=1;exitY=0.5;exitDx=0;exitDy=0;" edge="1" parent="1" source="FyADekcgpO9czLupaLKr-94" target="FyADekcgpO9czLupaLKr-97">
          <mxGeometry relative="1" as="geometry" />
        </mxCell>
        <mxCell id="FyADekcgpO9czLupaLKr-94" value="채널 번호를&lt;div&gt;검출하였는가?&lt;/div&gt;" style="rhombus;whiteSpace=wrap;html=1;rounded=1;fillColor=#d5e8d4;strokeColor=#82b366;" vertex="1" parent="1">
          <mxGeometry x="1370" y="1000" width="160" height="40" as="geometry" />
        </mxCell>
        <mxCell id="FyADekcgpO9czLupaLKr-105" style="edgeStyle=orthogonalEdgeStyle;rounded=0;orthogonalLoop=1;jettySize=auto;html=1;exitX=1;exitY=0.5;exitDx=0;exitDy=0;entryX=0;entryY=0.5;entryDx=0;entryDy=0;" edge="1" parent="1" source="FyADekcgpO9czLupaLKr-97" target="FyADekcgpO9czLupaLKr-98">
          <mxGeometry relative="1" as="geometry" />
        </mxCell>
        <mxCell id="FyADekcgpO9czLupaLKr-97" value="채널 번호 검출&lt;div&gt;실패 cnt+=1&lt;/div&gt;" style="rounded=1;whiteSpace=wrap;html=1;fontSize=12;glass=0;strokeWidth=1;shadow=0;fillColor=#dae8fc;strokeColor=#6c8ebf;" vertex="1" parent="1">
          <mxGeometry x="1570" y="1000" width="120" height="40" as="geometry" />
        </mxCell>
        <mxCell id="FyADekcgpO9czLupaLKr-106" value="No" style="edgeStyle=orthogonalEdgeStyle;rounded=0;orthogonalLoop=1;jettySize=auto;html=1;exitX=0.5;exitY=0;exitDx=0;exitDy=0;entryX=1;entryY=0.5;entryDx=0;entryDy=0;" edge="1" parent="1" source="FyADekcgpO9czLupaLKr-98" target="FyADekcgpO9czLupaLKr-92">
          <mxGeometry x="-0.8462" relative="1" as="geometry">
            <mxPoint y="-1" as="offset" />
          </mxGeometry>
        </mxCell>
        <mxCell id="FyADekcgpO9czLupaLKr-119" value="Yes" style="edgeStyle=orthogonalEdgeStyle;rounded=0;orthogonalLoop=1;jettySize=auto;html=1;exitX=1;exitY=0.5;exitDx=0;exitDy=0;" edge="1" parent="1" source="FyADekcgpO9czLupaLKr-98">
          <mxGeometry relative="1" as="geometry">
            <mxPoint x="1960" y="1020.5263157894738" as="targetPoint" />
          </mxGeometry>
        </mxCell>
        <mxCell id="FyADekcgpO9czLupaLKr-98" value="실패 cnt &amp;gt;= 5" style="rhombus;whiteSpace=wrap;html=1;rounded=1;fillColor=#d5e8d4;strokeColor=#82b366;" vertex="1" parent="1">
          <mxGeometry x="1730" y="1000" width="160" height="40" as="geometry" />
        </mxCell>
        <mxCell id="FyADekcgpO9czLupaLKr-104" style="edgeStyle=orthogonalEdgeStyle;rounded=0;orthogonalLoop=1;jettySize=auto;html=1;exitX=1;exitY=0.5;exitDx=0;exitDy=0;entryX=0.5;entryY=1;entryDx=0;entryDy=0;" edge="1" parent="1" source="FyADekcgpO9czLupaLKr-101" target="FyADekcgpO9czLupaLKr-98">
          <mxGeometry relative="1" as="geometry" />
        </mxCell>
        <mxCell id="FyADekcgpO9czLupaLKr-101" value="채널 번호 검출&lt;div&gt;실패 cnt = 0&lt;/div&gt;" style="rounded=1;whiteSpace=wrap;html=1;fontSize=12;glass=0;strokeWidth=1;shadow=0;fillColor=#dae8fc;strokeColor=#6c8ebf;" vertex="1" parent="1">
          <mxGeometry x="1570" y="1080" width="120" height="40" as="geometry" />
        </mxCell>
        <mxCell id="FyADekcgpO9czLupaLKr-126" value="Yes" style="edgeStyle=orthogonalEdgeStyle;rounded=0;orthogonalLoop=1;jettySize=auto;html=1;exitX=1;exitY=0.5;exitDx=0;exitDy=0;entryX=0;entryY=0.5;entryDx=0;entryDy=0;" edge="1" parent="1" source="FyADekcgpO9czLupaLKr-121" target="FyADekcgpO9czLupaLKr-138">
          <mxGeometry relative="1" as="geometry">
            <mxPoint x="2310" y="810" as="targetPoint" />
          </mxGeometry>
        </mxCell>
        <mxCell id="FyADekcgpO9czLupaLKr-137" value="No" style="edgeStyle=orthogonalEdgeStyle;rounded=0;orthogonalLoop=1;jettySize=auto;html=1;exitX=0.5;exitY=0;exitDx=0;exitDy=0;entryX=1;entryY=0.5;entryDx=0;entryDy=0;" edge="1" parent="1" source="FyADekcgpO9czLupaLKr-121" target="FyADekcgpO9czLupaLKr-123">
          <mxGeometry x="-0.5682" relative="1" as="geometry">
            <mxPoint as="offset" />
          </mxGeometry>
        </mxCell>
        <mxCell id="FyADekcgpO9czLupaLKr-121" value="실패 cnt &amp;gt;= 15" style="rhombus;whiteSpace=wrap;html=1;rounded=1;fillColor=#d5e8d4;strokeColor=#82b366;" vertex="1" parent="1">
          <mxGeometry x="2090" y="790" width="160" height="40" as="geometry" />
        </mxCell>
        <mxCell id="FyADekcgpO9czLupaLKr-125" style="edgeStyle=orthogonalEdgeStyle;rounded=0;orthogonalLoop=1;jettySize=auto;html=1;exitX=0;exitY=0.5;exitDx=0;exitDy=0;" edge="1" parent="1" source="FyADekcgpO9czLupaLKr-123" target="FyADekcgpO9czLupaLKr-13">
          <mxGeometry relative="1" as="geometry" />
        </mxCell>
        <mxCell id="FyADekcgpO9czLupaLKr-123" value="화면 캡쳐 data 삭제" style="rounded=1;whiteSpace=wrap;html=1;fontSize=12;glass=0;strokeWidth=1;shadow=0;fillColor=#dae8fc;strokeColor=#6c8ebf;" vertex="1" parent="1">
          <mxGeometry x="1570" y="370" width="120" height="40" as="geometry" />
        </mxCell>
        <mxCell id="FyADekcgpO9czLupaLKr-127" value="&lt;span style=&quot;text-wrap-mode: nowrap;&quot;&gt;&lt;span&gt;채널 당 딜레이 별 캡쳐&lt;/span&gt;&lt;/span&gt;&lt;div&gt;&lt;span style=&quot;text-wrap-mode: nowrap;&quot;&gt;&lt;span&gt;(채널 당 3장 캡쳐)&lt;/span&gt;&lt;/span&gt;&lt;/div&gt;" style="text;html=1;align=center;verticalAlign=middle;whiteSpace=wrap;rounded=0;fontStyle=0;fontSize=10;fontColor=light-dark(#1ac144, #ededed);" vertex="1" parent="1">
          <mxGeometry x="1459" y="410" width="130" height="30" as="geometry" />
        </mxCell>
        <mxCell id="FyADekcgpO9czLupaLKr-131" style="edgeStyle=orthogonalEdgeStyle;rounded=0;orthogonalLoop=1;jettySize=auto;html=1;exitX=0.5;exitY=1;exitDx=0;exitDy=0;entryX=0.5;entryY=0;entryDx=0;entryDy=0;" edge="1" parent="1" source="FyADekcgpO9czLupaLKr-129" target="FyADekcgpO9czLupaLKr-35">
          <mxGeometry relative="1" as="geometry" />
        </mxCell>
        <mxCell id="FyADekcgpO9czLupaLKr-129" value="딜레이 설정 = first" style="rounded=1;whiteSpace=wrap;html=1;fontSize=12;glass=0;strokeWidth=1;shadow=0;fillColor=#dae8fc;strokeColor=#6c8ebf;" vertex="1" parent="1">
          <mxGeometry x="1390" y="510" width="120" height="40" as="geometry" />
        </mxCell>
        <mxCell id="FyADekcgpO9czLupaLKr-136" style="edgeStyle=orthogonalEdgeStyle;rounded=0;orthogonalLoop=1;jettySize=auto;html=1;exitX=0;exitY=0.5;exitDx=0;exitDy=0;entryX=1;entryY=0.5;entryDx=0;entryDy=0;" edge="1" parent="1" source="FyADekcgpO9czLupaLKr-132" target="FyADekcgpO9czLupaLKr-35">
          <mxGeometry relative="1" as="geometry" />
        </mxCell>
        <mxCell id="FyADekcgpO9czLupaLKr-132" value="딜레이 변경" style="rounded=1;whiteSpace=wrap;html=1;fontSize=12;glass=0;strokeWidth=1;shadow=0;fillColor=#dae8fc;strokeColor=#6c8ebf;" vertex="1" parent="1">
          <mxGeometry x="1570" y="580" width="120" height="40" as="geometry" />
        </mxCell>
        <mxCell id="FyADekcgpO9czLupaLKr-138" value="engine stop" style="ellipse;whiteSpace=wrap;html=1;fillColor=#ffe6cc;strokeColor=#d79b00;" vertex="1" parent="1">
          <mxGeometry x="2340" y="790" width="120" height="40" as="geometry" />
        </mxCell>
      </root>
    </mxGraphModel>
  </diagram>
</mxfile>
